<?xml version="1.0" encoding="utf-8"?>
<!-- Generator: Adobe Illustrator 16.0.0, SVG Export Plug-In . SVG Version: 6.00 Build 0)  -->
<!DOCTYPE svg PUBLIC "-//W3C//DTD SVG 1.1//EN" "http://www.w3.org/Graphics/SVG/1.1/DTD/svg11.dtd">
<svg version="1.1" id="Layer_1" xmlns="http://www.w3.org/2000/svg" xmlns:xlink="http://www.w3.org/1999/xlink" x="0px" y="0px"
	 width="32px" height="32px" viewBox="0 0 32 32" enable-background="new 0 0 32 32" xml:space="preserve">
<polyline fill="none" stroke="#000000" stroke-miterlimit="10" points="19,2.5 14.5,2.5 16.5,2.5 16.5,29.5 14.5,29.5 19,29.5 "/>
<path fill="none" stroke="#000000" stroke-miterlimit="10" d="M16.5,0"/>
<g>
	<path d="M15.414,1.048l0.234-0.386h0.211l-0.346,0.522l0.356,0.534h-0.209l-0.244-0.396l-0.244,0.396h-0.21l0.356-0.534
		l-0.346-0.522h0.209L15.414,1.048z"/>
	<path d="M16.625,1.719h-0.182V0.515L16.08,0.648V0.484l0.518-0.194h0.028V1.719z"/>
	<path d="M18.047,1.112c0,0.211-0.037,0.369-0.109,0.472S17.752,1.738,17.6,1.738s-0.264-0.05-0.338-0.151
		c-0.072-0.101-0.109-0.251-0.113-0.451V0.896c0-0.209,0.037-0.364,0.109-0.466s0.186-0.152,0.34-0.152
		c0.152,0,0.266,0.049,0.338,0.147s0.109,0.249,0.111,0.454V1.112z M17.865,0.865c0-0.153-0.021-0.265-0.064-0.334
		s-0.111-0.105-0.203-0.105c-0.094,0-0.16,0.035-0.203,0.104C17.354,0.6,17.33,0.707,17.33,0.852v0.289
		c0,0.154,0.021,0.267,0.066,0.34s0.111,0.11,0.203,0.11c0.088,0,0.154-0.035,0.199-0.104c0.043-0.069,0.064-0.178,0.066-0.326
		V0.865z"/>
</g>
<g>
	<path d="M15.489,30.938l0.234-0.386h0.211l-0.346,0.522l0.356,0.534h-0.209l-0.244-0.396l-0.244,0.396h-0.21l0.356-0.534
		l-0.346-0.522h0.209L15.489,30.938z"/>
	<path d="M16.701,31.609H16.52v-1.204l-0.364,0.134v-0.164l0.518-0.194h0.028V31.609z"/>
</g>
</svg>
