<?xml version="1.0" encoding="utf-8"?>
<!-- Generator: Adobe Illustrator 16.0.0, SVG Export Plug-In . SVG Version: 6.00 Build 0)  -->
<!DOCTYPE svg PUBLIC "-//W3C//DTD SVG 1.1//EN" "http://www.w3.org/Graphics/SVG/1.1/DTD/svg11.dtd">
<svg version="1.1" id="Layer_1" xmlns="http://www.w3.org/2000/svg" xmlns:xlink="http://www.w3.org/1999/xlink" x="0px" y="0px"
	 width="960px" height="560px" viewBox="0 0 960 560" enable-background="new 0 0 960 560" xml:space="preserve">
<g id="Layer_1_1_">
	<rect x="-3" y="-1" width="38" height="563"/>
	<rect x="34" y="0.002" width="930" height="26.046"/>
	<rect x="921" y="26.048" width="43" height="534.95"/>
	<rect x="34" y="469.836" width="180" height="90.16"/>
	<rect x="742" y="469.836" width="179" height="91.162"/>
	<rect x="214" y="541.965" width="528" height="18.031"/>
	<rect x="214" y="469.836" width="528" height="17.03"/>
</g>
<g id="Layer_2">
	<rect x="35" y="27" fill="none" width="886" height="443"/>
	<rect x="214.5" y="486.5" fill="#FFFFFF" stroke="#000000" stroke-miterlimit="10" width="528" height="55"/>
	<circle fill="none" stroke="#000000" stroke-miterlimit="10" cx="478.5" cy="248.5" r="120.5"/>
	<polyline fill="none" stroke="#000000" stroke-miterlimit="10" points="535.5,262 535.5,285.5 498,285.5 	"/>
	<polyline fill="none" stroke="#000000" stroke-miterlimit="10" points="498,211.5 535.5,211.5 535.5,234 	"/>
	<polyline fill="none" stroke="#000000" stroke-miterlimit="10" points="420.5,236 420.5,211.5 452,211.5 	"/>
	<polyline fill="none" stroke="#000000" stroke-miterlimit="10" points="452,285.5 420.5,285.5 420.5,262 	"/>
</g>
</svg>
