<?xml version="1.0" encoding="utf-8"?>
<!-- Generator: Adobe Illustrator 16.0.0, SVG Export Plug-In . SVG Version: 6.00 Build 0)  -->
<!DOCTYPE svg PUBLIC "-//W3C//DTD SVG 1.1//EN" "http://www.w3.org/Graphics/SVG/1.1/DTD/svg11.dtd">
<svg version="1.1" xmlns="http://www.w3.org/2000/svg" xmlns:xlink="http://www.w3.org/1999/xlink" x="0px" y="0px" width="400px"
	 height="400px" viewBox="0 0 400 400" enable-background="new 0 0 400 400" xml:space="preserve">
<g id="Layer_1">
	<g>
		<path fill="#5D5D5D" d="M186.667,73c55,0,91.822,44.219,81.827,98.304c0,0-34.998,189.356-89.536,189.356
			c-52.63,0-88.393-189.419-88.393-189.419C80.363,117.195,117.016,73,172.016,73H186.667z"/>
		<path fill="none" stroke="#000000" stroke-width="3" stroke-miterlimit="10" d="M186.667,72.5c55,0,91.822,44.469,81.827,98.554
			c0,0-34.998,189.481-89.536,189.481c-52.63,0-88.393-189.607-88.393-189.607c-10.203-54.045,26.45-98.428,81.45-98.428H186.667z"
			/>
	</g>
</g>
<g id="Layer_2" display="none">
	<g display="inline">
		<path fill="#FFFFFF" d="M186.667,73c55,0,91.822,44.219,81.827,98.304c0,0-34.998,189.356-89.536,189.356
			c-52.63,0-88.393-189.419-88.393-189.419C80.363,117.195,117.016,73,172.016,73H186.667z"/>
		<path fill="none" stroke="#000000" stroke-width="3" stroke-miterlimit="10" d="M186.667,72.5c55,0,91.822,44.469,81.827,98.554
			c0,0-34.998,189.481-89.536,189.481c-52.63,0-88.393-189.607-88.393-189.607c-10.203-54.045,26.45-98.428,81.45-98.428H186.667z"
			/>
	</g>
</g>
</svg>
